<svg id="Layer_1" data-name="Layer 1" xmlns="http://www.w3.org/2000/svg" viewBox="0 0 1435.4 520"><defs><style>.cls-1,.cls-3{fill:#fff;}.cls-1{stroke:#182b60;stroke-miterlimit:10;stroke-width:20px;}.cls-2,.cls-4{fill:#182b60;}.cls-3,.cls-4{font-size:140px;font-family:ProximaNova-Bold, Proxima Nova;font-weight:700;}</style></defs><rect class="cls-1" x="522.5" y="10" width="902.9" height="500"/><path class="cls-2" d="M374.44,84.57l-230.09-20L73.6,294.66l40.73,7.86,4.29,112.19,165.07,20.73-3.57-115.77h30.73L368.73,126,470.2,263.22l38.59,4.29ZM225.81,234.64h-35l-4.28-120h54.31l2.85,84.32Z" transform="translate(-73.6 10)"/><polygon class="cls-2" points="337.7 407.9 276.25 425.73 276.25 332.11 337.7 314.26 337.7 407.9"/><rect class="cls-2" x="683.08" y="10" width="750" height="500"/><text class="cls-3" transform="translate(694.7 176.44)">oeller</text><text class="cls-3" transform="translate(691.86 412.54)">anagement</text><text class="cls-3" transform="translate(692.5 292.55)">roperty</text><text class="cls-4" transform="translate(546.06 178.09)">M</text><text class="cls-4" transform="translate(546.06 413.19)">M</text><text class="cls-4" transform="translate(562.23 292.55)">P</text></svg>