<?xml version="1.0" encoding="UTF-8"?>
<svg version="1.1" xmlns="http://www.w3.org/2000/svg" width="512" height="512">
<path d="M0 0 C2.59844819 0.10841816 5.15964348 0.28792085 7.74902344 0.51367188 C8.59494301 0.58320572 9.44086258 0.65273956 10.31241608 0.72438049 C13.24521197 0.96710416 16.17726002 1.21794214 19.109375 1.46875 C21.26590109 1.64939537 23.42245748 1.82967944 25.57904053 2.00964355 C32.6471286 2.60201229 39.71426106 3.20541277 46.78129196 3.81023407 C49.86706172 4.07415972 52.95289229 4.3373713 56.0387187 4.60063362 C79.85426766 6.63271416 103.66805031 8.68514253 127.48141241 10.74267006 C134.30622876 11.33228728 141.13111958 11.92103644 147.95605469 12.50927734 C149.89963023 12.67680359 151.84320577 12.84432983 153.78678131 13.01185608 C154.74526631 13.09447252 155.70375132 13.17708897 156.69128132 13.26220894 C157.64651786 13.34454718 158.6017544 13.42688541 159.5859375 13.51171875 C160.53702739 13.59369947 161.48811728 13.6756802 162.46802807 13.76014519 C172.72585341 14.64445476 182.98354723 15.53024114 193.24084473 16.4206543 C194.12549424 16.49744447 195.01014375 16.57423464 195.92160082 16.65335178 C199.39532695 16.95491656 202.86905035 17.25651248 206.34275532 17.558321 C215.81439331 18.38111167 225.28652125 19.1967765 234.76036453 19.99382782 C239.09203057 20.35887088 243.42322774 20.72925358 247.75432587 21.10096741 C249.62407 21.25996338 251.49404564 21.41626531 253.36426544 21.56956482 C255.81607941 21.77061278 258.26693893 21.98075734 260.71777344 22.19335938 C262.02470154 22.30272827 263.33162964 22.41209717 264.67816162 22.52478027 C268.65239418 23.09333103 271.79796032 23.76944218 274.64648438 26.68554688 C275.12408203 27.35650391 275.60167969 28.02746094 276.09375 28.71875 C276.91673584 29.85606567 276.91673584 29.85606567 277.75634766 31.01635742 C278.33175293 31.83595947 278.9071582 32.65556152 279.5 33.5 C280.11020996 34.34860596 280.72041992 35.19721191 281.34912109 36.0715332 C282.61886001 37.83924427 283.88362144 39.61054054 285.14355469 41.38525391 C287.94824377 45.33557217 290.78790106 49.26043243 293.625 53.1875 C294.1600415 53.9307251 294.69508301 54.6739502 295.24633789 55.43969727 C299.23671106 60.97512161 303.30684442 66.44577596 307.4128418 71.89575195 C316.45465487 83.90272394 325.32417505 96.03515074 334.10742188 108.23217773 C339.75677239 116.06834606 345.4929551 123.8396933 351.23388672 131.60888672 C354.15956103 135.56991162 357.07950306 139.53515717 360 143.5 C361.1666389 145.08335379 362.33330558 146.66668712 363.5 148.25 C370.5 157.75 377.5 167.25 384.5 176.75 C385.07758057 177.53383057 385.65516113 178.31766113 386.25024414 179.12524414 C387.41620806 180.70768185 388.58206104 182.29020131 389.74780273 183.87280273 C392.67431443 187.84551887 395.60277534 191.81676994 398.53515625 195.78515625 C404.93566112 204.45178821 411.29525267 213.14432827 417.56933594 221.90307617 C420.86856455 226.49283691 424.26332969 230.96362768 427.92578125 235.2734375 C429 237 429 237 429 241 C420.89520074 240.27559628 420.89520074 240.27559628 417.24023438 239.88891602 C411.98233837 239.3359334 406.78215261 238.93916461 401.49609375 238.796875 C384.44991854 238.04679218 384.44991854 238.04679218 379.01953125 232.69140625 C376.10849265 229.1819 373.76627994 225.37029449 371.47460938 221.43652344 C368.96291323 217.28640298 365.98635853 213.48982903 363.0625 209.625 C361.88391319 208.02550098 360.70813937 206.42392548 359.53515625 204.8203125 C356.03141016 200.04098234 352.51677449 195.26974819 349 190.5 C345.50881864 185.76384469 342.01890189 181.02678466 338.53515625 176.28515625 C332.56256696 168.16028254 326.55912726 160.06059382 320.5 152 C313.26891297 142.38032164 306.12504253 132.69836274 299 123 C291.79530609 113.19718385 284.58840241 103.39762272 277.25732422 93.6887207 C274.40595111 89.9050284 271.60235666 86.08911205 268.81787109 82.25585938 C268.10166595 81.27016968 267.38546082 80.28447998 266.64755249 79.2689209 C266.10386017 78.520177 265.56016785 77.77143311 265 77 C257.04467236 102.25393016 249.49232725 127.62802386 241.92021179 152.99885178 C240.15285421 158.91897333 238.38344203 164.83848076 236.61425781 170.75805664 C230.32168267 191.81501889 224.03611037 212.87406457 217.75825882 233.93542099 C216.1642894 239.28235345 214.56948097 244.62903575 212.97468376 249.97572136 C211.51418083 254.87279809 210.05555983 259.7704301 208.5984745 264.66852474 C207.70630579 267.66628122 206.81256885 270.66356853 205.91843033 273.66073799 C205.51442297 275.01620715 205.1110736 276.37187266 204.70849228 277.72776604 C204.16000639 279.57482588 203.60885476 281.42109349 203.05761719 283.26733398 C202.6028299 284.79510719 202.6028299 284.79510719 202.13885498 286.35374451 C200.50225479 291.59362364 198.7359376 296.7921872 197 302 C185.12 302 173.24 302 161 302 C161.33 306.95 161.66 311.9 162 317 C162.14996154 320.41033744 162.28659512 323.81496875 162.38891602 327.22631836 C162.41832275 328.13605408 162.44772949 329.04578979 162.47802734 329.98309326 C162.5726895 332.9352651 162.66349667 335.88753885 162.75390625 338.83984375 C162.81961373 340.93567792 162.88544783 343.03150813 162.95140076 345.12733459 C163.08845825 349.50353723 163.22350167 353.87979634 163.35717773 358.25610352 C163.52651151 363.79232671 163.70160379 369.32835016 163.87835789 374.86434078 C164.01571139 379.19126884 164.14952112 383.51830154 164.2823925 387.84536934 C164.34542261 389.88260028 164.40956808 391.91979711 164.47497749 393.95695305 C164.94414592 408.64185863 165.07880448 423.30783397 165 438 C153.65758965 437.43047478 142.46117229 436.32125508 131.19848633 434.8828125 C129.48017574 434.66712003 127.76181056 434.45186205 126.043396 434.23699951 C121.42994132 433.65887964 116.81728157 433.07463822 112.20476365 432.4890976 C107.35891553 431.87492217 102.51238448 431.26618116 97.66593933 430.65673828 C89.54338768 429.63453422 81.42131623 428.6085863 73.29956055 427.58007812 C63.9147266 426.39163879 54.52930527 425.20793528 45.14352399 424.02700233 C35.12502636 422.76645574 25.10688252 421.50311689 15.08888412 420.23860931 C12.20892785 419.8752393 9.32891495 419.51232091 6.44889259 419.1494751 C1.93006801 418.57997609 -2.58850982 418.00855679 -7.10690308 417.43564606 C-8.76405847 417.22580453 -10.42129165 417.01657631 -12.07860756 416.80800629 C-14.34019538 416.52327291 -16.60148722 416.23629395 -18.86271667 415.94873047 C-20.12783679 415.78871552 -21.39295691 415.62870056 -22.69641399 415.46383667 C-25.49512249 415.07088682 -28.23782048 414.59267383 -31 414 C-32.12317139 401.77400777 -32.51138012 389.51856441 -32.97265625 377.25390625 C-33.06076541 374.95189375 -33.14901976 372.6498868 -33.2374115 370.34788513 C-33.42139455 365.54114778 -33.6035572 360.73434583 -33.78442383 355.92749023 C-34.01511578 349.80058036 -34.25046664 343.67385994 -34.48720646 337.54718113 C-34.6701544 332.79859115 -34.85055172 328.04990679 -35.03021049 323.30119133 C-35.11593311 321.04357842 -35.20243966 318.78599513 -35.28978157 316.52844429 C-35.73389755 305.01421505 -36.15307205 293.52486158 -36 282 C-36.6337001 281.89431702 -37.26740021 281.78863403 -37.92030334 281.67974854 C-53.03004261 279.15411987 -68.0229415 276.21681969 -83 273 C-82.59672539 265.07573351 -80.73114612 258.0358599 -78.30859375 250.5078125 C-77.93207672 249.31036407 -77.55555969 248.11291565 -77.16763306 246.87918091 C-76.35640632 244.30312796 -75.54186416 241.72843399 -74.72122192 239.15539551 C-73.4134289 235.05432526 -72.11942166 230.94898661 -70.82788086 226.84277344 C-69.50069586 222.62484644 -68.17303718 218.40707736 -66.84101868 214.19067383 C-62.8524312 201.56285862 -58.94498446 188.91082859 -55.0625 176.25 C-54.41638977 174.1462003 -53.77014822 172.04244093 -53.1237793 169.9387207 C-51.78990887 165.597145 -50.45656084 161.25540936 -49.12353516 156.91357422 C-46.83899749 149.47409325 -44.55067856 142.03577745 -42.26171875 134.59765625 C-42.05823004 133.93639488 -41.85474133 133.27513351 -41.64508629 132.59383392 C-40.39082183 128.51799821 -39.136471 124.44218908 -37.88209915 120.36638641 C-35.98636003 114.20654137 -34.09079227 108.0466436 -32.1953125 101.88671875 C-31.98459925 101.20195717 -31.77388599 100.51719559 -31.55678749 99.81168365 C-28.66071597 90.40003964 -25.76633967 80.98787577 -22.87329102 71.57530212 C-21.28183321 66.39749326 -19.68990543 61.21982892 -18.0978775 56.04219532 C-17.01688369 52.52643037 -15.93615259 49.01058515 -14.8560791 45.49453735 C-12.24475749 36.99407785 -9.62798566 28.49532531 -7 20 C-6.52620911 18.46732483 -6.52620911 18.46732483 -6.04284668 16.90368652 C-5.19645321 14.17155892 -4.34545808 11.4409239 -3.4921875 8.7109375 C-3.24928986 7.92635162 -3.00639221 7.14176575 -2.75613403 6.33340454 C-1.11591362 1.11591362 -1.11591362 1.11591362 0 0 Z M51 61 C51 70.13543278 51.03376017 79.21160472 51.35131836 88.33203125 C51.38872635 89.46414536 51.42613434 90.59625946 51.4646759 91.76268005 C51.58712705 95.44604613 51.71328868 99.12927282 51.83984375 102.8125 C51.92724179 105.39745713 52.01452519 107.98241814 52.10169983 110.56738281 C52.28408178 115.9566039 52.46838173 121.34575465 52.65405273 126.73486328 C52.86808727 132.94866926 53.07742082 139.16262141 53.28451437 145.37666225 C53.48509321 151.38943962 53.68991324 157.40206439 53.89639473 163.41464233 C53.98329535 165.95986927 54.06900364 168.50513721 54.15348625 171.05044556 C54.27178644 174.60147436 54.39492274 178.1523041 54.51928711 181.703125 C54.55309479 182.7484288 54.58690247 183.7937326 54.62173462 184.87071228 C54.6567659 185.84311356 54.69179718 186.81551483 54.72789001 187.81738281 C54.7564656 188.65424622 54.78504118 189.49110962 54.81448269 190.35333252 C55.04101589 193.58514985 55.54183059 196.79281411 56 200 C69.2 200 82.4 200 96 200 C98.878193 194.59053906 101.73359829 189.17748443 104.54492188 183.73413086 C105.50399494 181.89081173 106.47382889 180.0530459 107.45507812 178.22143555 C108.87466986 175.56694385 110.25261974 172.89398967 111.625 170.21484375 C112.06247559 169.41731186 112.49995117 168.61977997 112.95068359 167.79808044 C116.72413092 160.26186267 116.38087761 153.28032623 116 145 C115.94184796 142.61577633 115.88590695 140.23149761 115.83227539 137.84716797 C115.75658066 135.39542898 115.67828788 132.94376909 115.59765625 130.4921875 C115.55505133 129.15146382 115.51261055 127.81073491 115.47032166 126.47000122 C115.38186326 123.68177307 115.29179104 120.89360357 115.20043945 118.10546875 C115.0856778 114.6004355 114.97445818 111.09530131 114.86443424 107.5901165 C114.77732473 104.82530605 114.68852021 102.06055187 114.59924126 99.2958107 C114.53813292 97.39717278 114.47815167 95.49849868 114.41822815 93.599823 C114.05940266 82.72438625 113.51777377 71.87324921 113 61 C92.54 61 72.08 61 51 61 Z " fill="#182B60" transform="translate(83,37)"/>
<path d="M0 0 C0 36.96 0 73.92 0 112 C-4.89573424 113.83590034 -9.55488529 115.53746181 -14.53613281 116.99291992 C-15.76390442 117.35306686 -16.99167603 117.71321381 -18.25665283 118.08427429 C-19.57207795 118.46656494 -20.88757029 118.84862433 -22.203125 119.23046875 C-23.57219769 119.62962959 -24.94123601 120.02890836 -26.3102417 120.42829895 C-29.16388698 121.2599417 -32.01823248 122.08912796 -34.87304688 122.91674805 C-38.5286165 123.97688572 -42.18186662 125.04479088 -45.83458328 126.11471081 C-48.65421267 126.93938948 -51.47525064 127.75916238 -54.29671478 128.57753944 C-55.6447968 128.96935943 -56.99238362 129.36288743 -58.33945465 129.75816917 C-60.2186303 130.30896929 -62.09999461 130.85228563 -63.98144531 131.39526367 C-65.04985657 131.70598312 -66.11826782 132.01670258 -67.21905518 132.33683777 C-70 133 -70 133 -74 133 C-74 96.04 -74 59.08 -74 21 C-2.92307692 0 -2.92307692 0 0 0 Z " fill="#172B60" transform="translate(398,319)"/>
</svg>
